<?xml version="1.0" standalone="no"?>
<!DOCTYPE svg PUBLIC "-//W3C//DTD SVG 20010904//EN"
 "http://www.w3.org/TR/2001/REC-SVG-20010904/DTD/svg10.dtd">
<svg version="1.0" xmlns="http://www.w3.org/2000/svg"
 width="225.000000pt" height="225.000000pt" viewBox="0 0 225.000000 225.000000"
 preserveAspectRatio="xMidYMid meet">

<g transform="translate(0.000000,225.000000) scale(0.100000,-0.100000)"
fill="#000000" stroke="none">
<path d="M334 2236 c-69 -30 -64 52 -64 -1111 0 -1166 -5 -1081 66 -1111 50
-21 1528 -21 1578 0 68 28 66 15 66 477 0 376 -2 417 -16 423 -43 16 -44 4
-44 -413 0 -327 -2 -401 -14 -417 -14 -19 -34 -19 -781 -19 -747 0 -767 0
-781 19 -20 28 -21 2052 -1 2080 9 12 31 20 65 24 l52 5 0 -47 c0 -34 5 -51
20 -63 13 -11 20 -30 20 -53 0 -23 -7 -42 -20 -53 -16 -14 -20 -29 -20 -81 0
-128 32 -151 129 -91 l61 36 58 -35 c65 -41 82 -44 105 -18 14 15 17 49 19
208 l3 189 370 0 370 0 3 -145 c4 -197 -4 -190 194 -190 l148 0 0 -414 c0
-435 1 -446 44 -430 14 6 16 49 16 448 l0 441 -178 178 -177 177 -630 0 c-508
-1 -636 -3 -661 -14z m376 -201 c0 -132 -6 -165 -25 -135 -11 18 -57 10 -104
-18 l-46 -29 3 49 c3 33 -1 57 -12 73 -20 31 -20 79 0 110 10 15 15 38 12 60
l-4 35 88 0 88 0 0 -145z m1055 -15 l110 -111 -115 3 -115 3 -3 108 c-1 59 1
107 5 107 5 0 58 -50 118 -110z"/>
<path d="M470 1475 c-15 -19 2 -45 31 -45 16 0 19 -11 21 -97 l3 -98 27 -3 27
-3 3 97 c3 95 4 98 28 104 18 4 25 12 25 30 0 24 -3 25 -76 28 -59 2 -79 -1
-89 -13z"/>
<path d="M744 1481 c-11 -5 -33 -23 -47 -41 -22 -25 -27 -42 -27 -82 0 -45 4
-54 39 -89 35 -35 44 -39 91 -39 47 0 56 4 91 39 35 35 39 44 39 90 0 44 -5
56 -33 87 -28 31 -41 37 -83 40 -27 2 -58 0 -70 -5z m101 -76 c14 -13 25 -33
25 -43 0 -33 -38 -72 -70 -72 -32 0 -70 39 -70 72 0 25 44 68 70 68 12 0 32
-11 45 -25z"/>
<path d="M1284 1477 c-2 -7 -3 -65 -2 -128 l3 -114 56 -3 c49 -3 61 1 87 23
63 52 63 157 1 209 -25 21 -41 26 -85 26 -36 0 -56 -5 -60 -13z m104 -63 c43
-29 20 -124 -30 -124 -16 0 -18 8 -18 63 0 81 7 90 48 61z"/>
<path d="M1583 1470 c-111 -67 -64 -240 65 -240 81 0 137 56 135 136 -3 98
-114 157 -200 104z m111 -61 c16 -13 26 -30 26 -47 0 -33 -36 -72 -67 -72 -30
0 -73 42 -73 70 0 26 43 70 68 70 11 0 31 -9 46 -21z"/>
<path d="M1021 1377 c-6 -8 -8 -22 -5 -31 5 -14 20 -16 93 -14 84 3 86 3 86
28 0 24 -2 25 -81 28 -60 2 -84 -1 -93 -11z"/>
<path d="M488 1069 c-16 -9 -18 -26 -18 -132 0 -82 4 -127 12 -135 8 -8 51
-12 129 -12 149 0 149 0 149 147 0 140 -3 143 -147 143 -60 0 -116 -5 -125
-11z m202 -139 l0 -80 -80 0 -80 0 0 80 0 80 80 0 80 0 0 -80z"/>
<path d="M924 1025 c-4 -8 -4 -22 0 -30 5 -13 59 -15 428 -13 l423 3 0 25 0
25 -423 3 c-369 2 -423 0 -428 -13z"/>
<path d="M929 874 c-9 -11 -10 -20 -2 -32 9 -15 42 -17 296 -20 249 -2 287 0
301 14 12 12 13 20 6 35 -10 18 -24 19 -299 19 -251 0 -290 -2 -302 -16z"/>
<path d="M500 607 c-24 -12 -25 -16 -28 -134 -3 -121 -2 -122 22 -138 20 -14
46 -16 130 -13 69 2 110 7 118 16 15 15 24 172 14 227 -5 26 -14 36 -38 44
-42 15 -187 14 -218 -2z m190 -137 l0 -80 -80 0 -80 0 0 80 0 80 80 0 80 0 0
-80z"/>
<path d="M930 565 c-7 -8 -10 -22 -6 -30 5 -13 57 -15 428 -13 l423 3 0 25 0
25 -416 3 c-360 2 -418 0 -429 -13z"/>
<path d="M925 410 c-3 -6 -3 -19 0 -30 6 -19 16 -20 300 -20 270 0 295 1 303
18 22 41 14 42 -298 42 -190 0 -301 -4 -305 -10z"/>
</g>
</svg>
